<svg width="32" height="32" viewBox="0 0 32 32" fill="none" xmlns="http://www.w3.org/2000/svg">
<path d="M21.3332 8.39996V7.99996C21.3332 5.05329 18.9465 2.66663 15.9998 2.66663C13.0532 2.66663 10.6665 5.05329 10.6665 7.99996V14.6666" stroke="#292D32" stroke-width="2" stroke-linecap="round" stroke-linejoin="round"/>
<path d="M12.0532 18.92C13.0266 20 14.4399 20.6666 15.9999 20.6666C18.9466 20.6666 21.3332 18.28 21.3332 15.3333V14.6666" stroke="#292D32" stroke-width="2" stroke-linecap="round" stroke-linejoin="round"/>
<path d="M9.04004 22.6C10.8667 24.2934 13.3067 25.3334 16 25.3334C21.6267 25.3334 26.2 20.76 26.2 15.1334V12.8667" stroke="#292D32" stroke-width="2" stroke-linecap="round" stroke-linejoin="round"/>
<path d="M5.80029 12.8667V15.1334C5.80029 16.5467 6.08029 17.88 6.60029 19.1067" stroke="#292D32" stroke-width="2" stroke-linecap="round" stroke-linejoin="round"/>
<path d="M26.7597 3.78674L5.23975 25.3201" stroke="#292D32" stroke-width="2" stroke-linecap="round" stroke-linejoin="round"/>
<path d="M14.6665 4V8" stroke="#292D32" stroke-width="2" stroke-linecap="round" stroke-linejoin="round"/>
<path d="M16 25.3334V29.3334" stroke="#292D32" stroke-width="2" stroke-linecap="round" stroke-linejoin="round"/>
</svg>
