<svg width="32" height="32" viewBox="0 0 32 32" fill="none" xmlns="http://www.w3.org/2000/svg">
<path d="M2.66675 13.3333V18.6667C2.66675 21.3333 4.00008 22.6667 6.66675 22.6667H8.57341C9.06675 22.6667 9.56008 22.8133 9.98675 23.0667L13.8801 25.5067C17.2401 27.6133 20.0001 26.08 20.0001 22.12V9.88C20.0001 5.90667 17.2401 4.38667 13.8801 6.49334L9.98675 8.93334C9.56008 9.18667 9.06675 9.33334 8.57341 9.33334H6.66675C4.00008 9.33334 2.66675 10.6667 2.66675 13.3333Z" stroke="#292D32" stroke-width="2"/>
<path d="M24 10.6666C26.3733 13.8266 26.3733 18.1733 24 21.3333" stroke="#292D32" stroke-width="2" stroke-linecap="round" stroke-linejoin="round"/>
<path d="M26.4399 7.33337C30.2933 12.4667 30.2933 19.5334 26.4399 24.6667" stroke="#292D32" stroke-width="2" stroke-linecap="round" stroke-linejoin="round"/>
</svg>
