<svg width="16" height="16" viewBox="0 0 16 16" fill="none" xmlns="http://www.w3.org/2000/svg">
<path d="M8.66665 14.6667H3.33331C1.99998 14.6667 1.33331 14 1.33331 12.6667V7.33334C1.33331 6 1.99998 5.33334 3.33331 5.33334H6.66665V12.6667C6.66665 14 7.33331 14.6667 8.66665 14.6667Z" stroke="white" stroke-miterlimit="10" stroke-linecap="round" stroke-linejoin="round"/>
<path d="M6.73997 2.66666C6.68664 2.86666 6.66665 3.08666 6.66665 3.33333V5.33333H3.33331V4C3.33331 3.26666 3.93331 2.66666 4.66665 2.66666H6.73997Z" stroke="white" stroke-miterlimit="10" stroke-linecap="round" stroke-linejoin="round"/>
<path d="M9.33331 5.33334V8.66667" stroke="white" stroke-miterlimit="10" stroke-linecap="round" stroke-linejoin="round"/>
<path d="M12 5.33334V8.66667" stroke="white" stroke-miterlimit="10" stroke-linecap="round" stroke-linejoin="round"/>
<path d="M11.3333 11.3333H9.99998C9.63331 11.3333 9.33331 11.6333 9.33331 12V14.6667H12V12C12 11.6333 11.7 11.3333 11.3333 11.3333Z" stroke="white" stroke-miterlimit="10" stroke-linecap="round" stroke-linejoin="round"/>
<path d="M4 8.66666V11.3333" stroke="white" stroke-miterlimit="10" stroke-linecap="round" stroke-linejoin="round"/>
<path d="M6.66669 12.6667V3.33334C6.66669 2 7.33335 1.33334 8.66669 1.33334H12.6667C14 1.33334 14.6667 2 14.6667 3.33334V12.6667C14.6667 14 14 14.6667 12.6667 14.6667H8.66669C7.33335 14.6667 6.66669 14 6.66669 12.6667Z" stroke="white" stroke-miterlimit="10" stroke-linecap="round" stroke-linejoin="round"/>
</svg>
