<svg width="151" height="38" viewBox="0 0 151 38" fill="none" xmlns="http://www.w3.org/2000/svg">
<path d="M18.4303 37.4298C13.5074 37.4298 8.87925 35.5126 5.398 32.0318C1.91675 28.5506 0 23.9224 0 18.9995C0 14.0766 1.91721 9.44852 5.398 5.96727C8.87879 2.48602 13.5074 0.569275 18.4303 0.569275C21.748 0.569275 25.0008 1.46108 27.8379 3.14798C28.3947 3.47919 28.5779 4.19908 28.2467 4.75593C27.9154 5.31278 27.1955 5.49591 26.6387 5.1647C24.1646 3.69315 21.3262 2.9158 18.4303 2.9158C9.5613 2.9158 2.34606 10.131 2.34606 19C2.34606 27.869 9.5613 35.0842 18.4303 35.0842C23.4284 35.0842 28.0575 32.819 31.1313 28.8696C31.5294 28.3586 32.2665 28.2665 32.7776 28.6645C33.2887 29.0626 33.3807 29.7997 32.9827 30.3108C31.2963 32.4779 29.1104 34.2704 26.6611 35.4949C24.0918 36.7795 21.322 37.4307 18.4298 37.4307L18.4303 37.4298Z" fill="url(#paint0_linear_40_3136)"/>
<path d="M6.20626 14.8195H14.0965C14.673 14.8195 15.0318 15.4459 14.7394 15.943L12.6152 19.5569C12.4811 19.7849 12.2368 19.925 11.9724 19.925H8.83729C8.59904 19.925 8.3748 19.811 8.23419 19.6181L5.60269 16.0042C5.24392 15.5113 5.59569 14.8195 6.20579 14.8195H6.20626Z" fill="url(#paint1_linear_40_3136)"/>
<path d="M8.52515 20.985H12.4899C12.7305 20.985 12.9356 21.1587 12.9753 21.3961C13.2089 22.784 14.2263 27.2336 17.7118 27.6368C17.801 27.6471 17.8319 27.7611 17.7608 27.8157C16.9891 28.4104 14.0876 30.3916 11.799 28.5459C9.46694 26.6651 8.34249 23.2039 8.04118 21.5642C7.98559 21.2624 8.21916 20.985 8.52562 20.985H8.52515Z" fill="url(#paint2_linear_40_3136)"/>
<path d="M32.9301 1.28989L26.3011 8.35376C25.9764 8.69993 25.7919 9.15447 25.7854 9.62863C25.7363 13.023 24.959 27.3091 15.4248 30.3522C15.3916 30.3629 15.3981 30.4115 15.4332 30.4124L20.4182 30.5353C22.5779 30.5886 24.7231 30.1672 26.7001 29.2964C29.8211 27.9211 33.8373 25.2078 36.0782 20.9848C39.4805 14.5726 39.4109 11.9401 39.4801 9.21146C39.4913 8.76112 39.3409 8.32106 39.0582 7.97023L33.657 1.31745C33.4734 1.08994 33.1309 1.07686 32.9305 1.29035L32.9301 1.28989Z" fill="url(#paint3_linear_40_3136)"/>
<path d="M56.2233 26.2252C55.1469 26.2252 54.2416 26.1616 53.5089 26.0345C52.7761 25.9074 52.177 25.6831 51.714 25.3614C51.2497 25.0398 50.8956 24.5833 50.6479 23.9932C50.4015 23.4031 50.2329 22.6432 50.1434 21.7159C50.0539 20.7886 50.0085 19.659 50.0085 18.3284C50.0085 16.9978 50.0539 15.8721 50.1434 14.9513C50.2329 14.0318 50.4015 13.2757 50.6479 12.6857C50.8943 12.0956 51.2497 11.6352 51.714 11.3058C52.177 10.9763 52.7761 10.7494 53.5089 10.621C54.2416 10.4939 55.1469 10.4304 56.2233 10.4304C56.6422 10.4304 57.0715 10.4459 57.5137 10.4758C57.9547 10.5056 58.3775 10.5432 58.7808 10.5886C59.1841 10.634 59.5356 10.6936 59.8352 10.7676V12.316C59.4915 12.2706 59.1361 12.2304 58.7691 12.1928C58.4021 12.1552 58.0403 12.1293 57.681 12.1137C57.3218 12.0995 57.0001 12.0917 56.7161 12.0917C55.8485 12.0917 55.1235 12.1293 54.5399 12.2032C53.9563 12.2784 53.4933 12.4237 53.1483 12.6403C52.8047 12.8568 52.5466 13.194 52.3741 13.6505C52.2016 14.107 52.0862 14.7127 52.0265 15.4675C51.9669 16.2236 51.937 17.1768 51.937 18.3284C51.937 19.4801 51.9669 20.4346 52.0265 21.1893C52.0862 21.9454 52.2016 22.5511 52.3741 23.0063C52.5453 23.4628 52.8034 23.7987 53.1483 24.0153C53.492 24.2318 53.9563 24.3784 54.5399 24.4523C55.1235 24.5275 55.8485 24.5651 56.7161 24.5651C57.2245 24.5651 57.7783 24.5431 58.3762 24.4977C58.974 24.4523 59.4902 24.4004 59.9247 24.3408V25.9334C59.6108 25.993 59.2399 26.0423 58.8145 26.0786C58.3878 26.1162 57.9508 26.15 57.502 26.1798C57.0533 26.2096 56.6266 26.2252 56.2233 26.2252Z" fill="#EA3E39"/>
<path d="M65.3107 26.2254C64.4729 26.2254 63.7739 26.1282 63.2124 25.9336C62.6508 25.7391 62.2332 25.4032 61.9557 24.9246C61.6781 24.4461 61.5406 23.773 61.5406 22.9054C61.5406 22.0378 61.6418 21.3543 61.8441 20.8524C62.0464 20.3518 62.4005 19.9965 62.9102 19.7864C63.4186 19.5776 64.1293 19.4725 65.041 19.4725C65.1901 19.4725 65.4262 19.4764 65.7478 19.4842C66.0694 19.492 66.439 19.4998 66.8579 19.5062C67.2768 19.514 67.6996 19.5218 68.125 19.5283C68.5517 19.5361 68.9447 19.5477 69.3026 19.562V18.8435C69.3026 18.1704 69.2611 17.6426 69.1794 17.2613C69.0964 16.88 68.9291 16.596 68.6749 16.4093C68.4207 16.2225 68.0654 16.1032 67.6089 16.05C67.1523 15.9982 66.5506 15.9709 65.8023 15.9709C65.4729 15.9709 65.0838 15.9826 64.6351 16.0046C64.1863 16.0267 63.7493 16.0578 63.3226 16.0941C62.8959 16.1317 62.5561 16.1732 62.3019 16.2173V14.7363C62.87 14.6312 63.5093 14.5534 64.2201 14.5003C64.9308 14.4484 65.6674 14.4211 66.43 14.4211C67.2379 14.4211 67.9214 14.4704 68.483 14.5664C69.0445 14.6637 69.4997 14.8167 69.8512 15.0268C70.2027 15.2369 70.4685 15.5131 70.6475 15.8568C70.8265 16.2005 70.951 16.6194 71.0171 17.1135C71.0846 17.6076 71.1183 18.1834 71.1183 18.8409V26.0426H69.4803L69.4128 24.4266H69.278C69.038 24.9506 68.6983 25.3435 68.2573 25.6042C67.8164 25.8662 67.3339 26.0348 66.81 26.1087C66.286 26.1839 65.7854 26.2202 65.3069 26.2202L65.3107 26.2254ZM65.9838 24.7223C66.417 24.7223 66.8216 24.6964 67.1951 24.6432C67.5687 24.5913 67.8981 24.4902 68.1821 24.3397C68.4661 24.1906 68.6905 23.9662 68.8552 23.6667C69.0199 23.3528 69.1353 23.013 69.2027 22.646C69.2702 22.2803 69.3039 21.8497 69.3039 21.3556V20.772H65.4897C64.9061 20.772 64.4574 20.8174 64.1435 20.9069C63.8297 20.9964 63.6157 21.1844 63.5042 21.4684C63.3913 21.7524 63.3356 22.1791 63.3356 22.7472C63.3356 23.3152 63.403 23.7198 63.5379 24.0039C63.6728 24.2879 63.9308 24.4785 64.3121 24.5758C64.6934 24.6731 65.2511 24.721 65.9838 24.721V24.7223Z" fill="#EA3E39"/>
<path d="M74.105 26.0463V14.6038H75.743L75.8325 16.8021H75.9673C76.1619 16.1588 76.4381 15.666 76.7973 15.321C77.1566 14.9774 77.5898 14.7413 78.0981 14.6142C78.6065 14.4871 79.1681 14.4236 79.7815 14.4236V16.2185C78.7492 16.2185 77.9568 16.3832 77.403 16.7126C76.8492 17.042 76.4679 17.5504 76.2591 18.2377C76.049 18.9264 75.9453 19.794 75.9453 20.8406V26.0463H74.105Z" fill="#EA3E39"/>
<path d="M86.1091 26.2253C85.1819 26.2253 84.4076 26.1656 83.7864 26.0463C83.1652 25.927 82.6685 25.7286 82.2949 25.4523C81.9214 25.1761 81.6361 24.8091 81.4429 24.3526C81.2483 23.8961 81.1213 23.3397 81.0616 22.6809C81.0019 22.0233 80.9721 21.2452 80.9721 20.3478C80.9721 19.2856 81.0175 18.3778 81.107 17.6217C81.1965 16.8669 81.4027 16.2535 81.7243 15.7814C82.0459 15.3107 82.5504 14.967 83.2391 14.7491C83.9265 14.5325 84.855 14.4236 86.021 14.4236C86.9028 14.4236 87.6252 14.491 88.1855 14.6259C88.7457 14.7608 89.1919 14.9696 89.52 15.2536C89.8494 15.5376 90.0919 15.915 90.2489 16.3871C90.4058 16.8578 90.5069 17.4194 90.5523 18.0704C90.5977 18.7215 90.6198 19.4724 90.6198 20.3257V20.9314H82.7891C82.7891 21.7095 82.8267 22.345 82.9019 22.8391C82.9771 23.3332 83.1302 23.7145 83.3623 23.9829C83.5944 24.2527 83.9602 24.4394 84.4621 24.5445C84.9627 24.6495 85.6474 24.7014 86.5151 24.7014C86.8743 24.7014 87.2699 24.6898 87.7043 24.6677C88.1375 24.6457 88.572 24.6119 89.0051 24.5665C89.4383 24.5212 89.8274 24.4771 90.1723 24.4317V25.9127C89.8585 25.9724 89.4733 26.0255 89.0168 26.0696C88.5603 26.115 88.0817 26.1513 87.5811 26.1825C87.0792 26.2123 86.5903 26.2279 86.1117 26.2279L86.1091 26.2253ZM88.8469 20.0106V19.4049C88.8469 18.6268 88.8015 18.0108 88.712 17.5543C88.6225 17.0978 88.4682 16.7541 88.2516 16.5219C88.035 16.2898 87.7393 16.1368 87.3658 16.0616C86.9923 15.9863 86.528 15.9487 85.9743 15.9487C85.2558 15.9487 84.6877 15.998 84.2688 16.094C83.8499 16.1912 83.5361 16.3676 83.326 16.6218C83.1159 16.876 82.9745 17.243 82.8993 17.7216C82.8241 18.2001 82.7865 18.8356 82.7865 19.6293H89.271L88.8443 20.0106H88.8469Z" fill="#EA3E39"/>
<path d="M97.7528 26.2253C96.8255 26.2253 96.0513 26.1656 95.4301 26.0463C94.8088 25.927 94.3121 25.7286 93.9386 25.4523C93.5651 25.1761 93.2798 24.8091 93.0866 24.3526C92.892 23.8961 92.7649 23.3397 92.7053 22.6809C92.6456 22.0233 92.6158 21.2452 92.6158 20.3478C92.6158 19.2856 92.6612 18.3778 92.7507 17.6217C92.8402 16.8669 93.0464 16.2535 93.368 15.7814C93.6896 15.3107 94.1941 14.967 94.8828 14.7491C95.5701 14.5325 96.4987 14.4236 97.6646 14.4236C98.5465 14.4236 99.2689 14.491 99.8292 14.6259C100.389 14.7608 100.836 14.9696 101.164 15.2536C101.493 15.5376 101.736 15.915 101.893 16.3871C102.049 16.8578 102.151 17.4194 102.196 18.0704C102.241 18.7215 102.263 19.4724 102.263 20.3257V20.9314H94.4327C94.4327 21.7095 94.4704 22.345 94.5456 22.8391C94.6208 23.3332 94.7738 23.7145 95.006 23.9829C95.2381 24.2527 95.6039 24.4394 96.1058 24.5445C96.6064 24.6495 97.2911 24.7014 98.1587 24.7014C98.518 24.7014 98.9135 24.6898 99.348 24.6677C99.7812 24.6457 100.216 24.6119 100.649 24.5665C101.082 24.5212 101.471 24.4771 101.816 24.4317V25.9127C101.502 25.9724 101.117 26.0255 100.66 26.0696C100.204 26.115 99.7254 26.1513 99.2248 26.1825C98.7229 26.2123 98.234 26.2279 97.7554 26.2279L97.7528 26.2253ZM100.491 20.0106V19.4049C100.491 18.6268 100.445 18.0108 100.356 17.5543C100.266 17.0978 100.112 16.7541 99.8953 16.5219C99.6787 16.2898 99.383 16.1368 99.0095 16.0616C98.636 15.9863 98.1717 15.9487 97.6179 15.9487C96.8995 15.9487 96.3314 15.998 95.9125 16.094C95.4936 16.1912 95.1798 16.3676 94.9697 16.6218C94.7596 16.876 94.6182 17.243 94.543 17.7216C94.4678 18.2001 94.4301 18.8356 94.4301 19.6293H100.915L100.488 20.0106H100.491Z" fill="#EA3E39"/>
<path d="M104.73 26.0463V14.6038H106.368L106.457 16.8021H106.592C106.787 16.1588 107.063 15.666 107.422 15.321C107.782 14.9774 108.215 14.7413 108.723 14.6142C109.232 14.4871 109.793 14.4236 110.407 14.4236V16.2185C109.374 16.2185 108.582 16.3832 108.028 16.7126C107.474 17.042 107.093 17.5504 106.884 18.2377C106.674 18.9264 106.57 19.794 106.57 20.8406V26.0463H104.73Z" fill="#EA3E39"/>
<path d="M112.38 26.0457V10.6102H114.31V26.0457H112.38Z" fill="#EA3E39"/>
<path d="M123.688 26.2248C122.491 26.2248 121.5 26.1613 120.716 26.0342C119.93 25.9071 119.31 25.6789 118.853 25.3494C118.397 25.02 118.065 24.5609 117.855 23.9696C117.645 23.3795 117.511 22.6234 117.451 21.7039C117.392 20.7844 117.362 19.6587 117.362 18.3268C117.362 16.9949 117.392 15.8705 117.451 14.9497C117.511 14.0302 117.646 13.2741 117.855 12.684C118.064 12.0939 118.397 11.6336 118.853 11.3041C119.31 10.9747 119.93 10.7478 120.716 10.6194C121.5 10.4923 122.491 10.4287 123.688 10.4287C124.885 10.4287 125.876 10.4923 126.661 10.6194C127.445 10.7465 128.067 10.9747 128.523 11.3041C128.98 11.6336 129.312 12.0927 129.522 12.684C129.731 13.2754 129.865 14.0302 129.925 14.9497C129.985 15.8692 130.015 16.9949 130.015 18.3268C130.015 19.6587 129.985 20.7831 129.925 21.7039C129.865 22.6234 129.731 23.3795 129.522 23.9696C129.312 24.5609 128.98 25.02 128.523 25.3494C128.067 25.6789 127.447 25.9071 126.661 26.0342C125.875 26.1613 124.884 26.2248 123.688 26.2248ZM123.688 24.5648C124.51 24.5648 125.191 24.5389 125.73 24.4857C126.268 24.4338 126.694 24.3106 127.008 24.1161C127.322 23.9216 127.562 23.6038 127.727 23.1629C127.891 22.722 127.993 22.1124 128.029 21.3343C128.067 20.5561 128.085 19.5549 128.085 18.3281C128.085 17.1012 128.065 16.1 128.029 15.3219C127.991 14.5438 127.89 13.9342 127.727 13.4933C127.562 13.0523 127.323 12.7346 127.008 12.5401C126.694 12.3455 126.268 12.2223 125.73 12.1705C125.191 12.1186 124.51 12.0914 123.688 12.0914C122.866 12.0914 122.189 12.1173 121.657 12.1705C121.127 12.2236 120.7 12.3468 120.379 12.5401C120.057 12.7346 119.818 13.0523 119.66 13.4933C119.503 13.9342 119.402 14.5438 119.357 15.3219C119.311 16.1 119.289 17.1025 119.289 18.3281C119.289 19.5537 119.311 20.5574 119.357 21.3343C119.402 22.1124 119.502 22.722 119.66 23.1629C119.817 23.6038 120.056 23.9216 120.379 24.1161C120.7 24.3106 121.127 24.4338 121.657 24.4857C122.188 24.5389 122.865 24.5648 123.688 24.5648ZM128.221 28.6254L122.836 21.154H124.923L130.419 28.58V28.6254H128.221Z" fill="#EA3E39"/>
<path d="M131.833 26.0465V23.8482H133.963V26.0465H131.833Z" fill="#EA3E39"/>
<path d="M139.506 26.2254C138.669 26.2254 137.97 26.1282 137.408 25.9336C136.846 25.7391 136.429 25.4032 136.151 24.9246C135.874 24.4461 135.736 23.773 135.736 22.9054C135.736 22.0378 135.837 21.3543 136.04 20.8524C136.242 20.3518 136.596 19.9965 137.106 19.7864C137.614 19.5776 138.325 19.4725 139.237 19.4725C139.386 19.4725 139.622 19.4764 139.943 19.4842C140.265 19.492 140.635 19.4998 141.054 19.5062C141.473 19.514 141.895 19.5218 142.321 19.5283C142.747 19.5361 143.14 19.5477 143.498 19.562V18.8435C143.498 18.1704 143.457 17.6426 143.375 17.2613C143.292 16.88 143.125 16.596 142.871 16.4093C142.616 16.2225 142.261 16.1032 141.805 16.05C141.348 15.9982 140.746 15.9709 139.998 15.9709C139.669 15.9709 139.279 15.9826 138.831 16.0046C138.382 16.0267 137.945 16.0578 137.518 16.0941C137.092 16.1317 136.752 16.1732 136.498 16.2173V14.7363C137.066 14.6312 137.705 14.5534 138.416 14.5003C139.126 14.4484 139.863 14.4211 140.626 14.4211C141.434 14.4211 142.117 14.4704 142.679 14.5664C143.24 14.6637 143.695 14.8167 144.047 15.0268C144.398 15.2369 144.664 15.5131 144.843 15.8568C145.022 16.2005 145.147 16.6194 145.213 17.1135C145.28 17.6076 145.314 18.1834 145.314 18.8409V26.0426H143.676L143.609 24.4266H143.474C143.234 24.9506 142.894 25.3435 142.453 25.6042C142.012 25.8662 141.53 26.0348 141.006 26.1087C140.482 26.1839 139.981 26.2202 139.503 26.2202L139.506 26.2254ZM140.18 24.7223C140.613 24.7223 141.017 24.6964 141.391 24.6432C141.764 24.5913 142.094 24.4902 142.378 24.3397C142.662 24.1906 142.886 23.9662 143.051 23.6667C143.216 23.3528 143.331 23.013 143.398 22.646C143.466 22.2803 143.5 21.8497 143.5 21.3556V20.772H139.685C139.102 20.772 138.653 20.8174 138.339 20.9069C138.025 20.9964 137.811 21.1844 137.7 21.4684C137.587 21.7524 137.531 22.1791 137.531 22.7472C137.531 23.3152 137.599 23.7198 137.734 24.0039C137.868 24.2879 138.127 24.4785 138.508 24.5758C138.889 24.6731 139.447 24.721 140.18 24.721V24.7223Z" fill="#EA3E39"/>
<path d="M148.257 11.3718V9.37454H150.209V11.3718H148.257ZM148.302 26.0448V14.6023H150.143V26.0448H148.302Z" fill="#EA3E39"/>
<defs>
<linearGradient id="paint0_linear_40_3136" x1="20.1018" y1="12.1819" x2="13.3518" y2="32.9554" gradientUnits="userSpaceOnUse">
<stop stop-color="#F7A831"/>
<stop offset="0.42" stop-color="#F3903F"/>
<stop offset="0.74" stop-color="#ED683C"/>
<stop offset="1" stop-color="#E93E3A"/>
</linearGradient>
<linearGradient id="paint1_linear_40_3136" x1="10.7592" y1="13.6955" x2="8.73358" y2="19.9297" gradientUnits="userSpaceOnUse">
<stop stop-color="#F7A831"/>
<stop offset="0.42" stop-color="#F3903F"/>
<stop offset="0.74" stop-color="#ED683C"/>
<stop offset="1" stop-color="#E93E3A"/>
</linearGradient>
<linearGradient id="paint2_linear_40_3136" x1="13.9381" y1="21.4302" x2="11.5701" y2="28.7169" gradientUnits="userSpaceOnUse">
<stop stop-color="#F7A831"/>
<stop offset="0.42" stop-color="#F3903F"/>
<stop offset="0.74" stop-color="#ED683C"/>
<stop offset="1" stop-color="#E93E3A"/>
</linearGradient>
<linearGradient id="paint3_linear_40_3136" x1="33.9798" y1="1.33987" x2="23.6645" y2="33.0883" gradientUnits="userSpaceOnUse">
<stop stop-color="#F7A831"/>
<stop offset="0.42" stop-color="#F3903F"/>
<stop offset="0.74" stop-color="#ED683C"/>
<stop offset="1" stop-color="#E93E3A"/>
</linearGradient>
</defs>
</svg>
