<svg width="32" height="32" viewBox="0 0 32 32" fill="none" xmlns="http://www.w3.org/2000/svg">
<path d="M15.9998 20.667C18.9465 20.667 21.3332 18.2803 21.3332 15.3337V8.00033C21.3332 5.05366 18.9465 2.66699 15.9998 2.66699C13.0532 2.66699 10.6665 5.05366 10.6665 8.00033V15.3337C10.6665 18.2803 13.0532 20.667 15.9998 20.667Z" stroke="#292D32" stroke-width="2" stroke-linecap="round" stroke-linejoin="round"/>
<path d="M5.80005 12.8668V15.1335C5.80005 20.7602 10.3734 25.3335 16.0001 25.3335C21.6267 25.3335 26.2001 20.7602 26.2001 15.1335V12.8668" stroke="#292D32" stroke-width="2" stroke-linecap="round" stroke-linejoin="round"/>
<path d="M14.1467 8.57304C15.3467 8.13304 16.6534 8.13304 17.8534 8.57304" stroke="#292D32" stroke-width="2" stroke-linecap="round" stroke-linejoin="round"/>
<path d="M14.9333 11.4004C15.64 11.2137 16.3734 11.2137 17.08 11.4004" stroke="#292D32" stroke-width="2" stroke-linecap="round" stroke-linejoin="round"/>
<path d="M16 25.333V29.333" stroke="#292D32" stroke-width="2" stroke-linecap="round" stroke-linejoin="round"/>
</svg>
