<svg width="12" height="4" viewBox="0 0 12 4" fill="none" xmlns="http://www.w3.org/2000/svg">
<path fill-rule="evenodd" clip-rule="evenodd" d="M6 2C6.02486 2 6.04871 1.99012 6.06629 1.97254C6.08387 1.95496 6.09375 1.93111 6.09375 1.90625C6.09375 1.88139 6.08387 1.85754 6.06629 1.83996C6.04871 1.82238 6.02486 1.8125 6 1.8125C5.97514 1.8125 5.95129 1.82238 5.93371 1.83996C5.91613 1.85754 5.90625 1.88139 5.90625 1.90625C5.90625 1.93111 5.91613 1.95496 5.93371 1.97254C5.95129 1.99012 5.97514 2 6 2ZM4.59375 1.90625C4.59375 1.72158 4.63012 1.53872 4.70079 1.3681C4.77147 1.19749 4.87505 1.04246 5.00563 0.911881C5.13621 0.781298 5.29124 0.677715 5.46185 0.607044C5.63247 0.536374 5.81533 0.5 6 0.5C6.18467 0.5 6.36753 0.536374 6.53815 0.607044C6.70876 0.677715 6.86379 0.781298 6.99437 0.911881C7.12495 1.04246 7.22853 1.19749 7.29921 1.3681C7.36988 1.53872 7.40625 1.72158 7.40625 1.90625C7.40625 2.27921 7.25809 2.6369 6.99437 2.90062C6.73065 3.16434 6.37296 3.3125 6 3.3125C5.62704 3.3125 5.26935 3.16434 5.00563 2.90062C4.74191 2.6369 4.59375 2.27921 4.59375 1.90625ZM10.5938 2C10.6186 2 10.6425 1.99012 10.66 1.97254C10.6776 1.95496 10.6875 1.93111 10.6875 1.90625C10.6875 1.88139 10.6776 1.85754 10.66 1.83996C10.6425 1.82238 10.6186 1.8125 10.5938 1.8125C10.5689 1.8125 10.545 1.82238 10.5275 1.83996C10.5099 1.85754 10.5 1.88139 10.5 1.90625C10.5 1.93111 10.5099 1.95496 10.5275 1.97254C10.545 1.99012 10.5689 2 10.5938 2ZM9.1875 1.90625C9.1875 1.53329 9.33566 1.1756 9.59938 0.911881C9.8631 0.648158 10.2208 0.5 10.5938 0.5C10.9667 0.5 11.3244 0.648158 11.5881 0.911881C11.8518 1.1756 12 1.53329 12 1.90625C12 2.27921 11.8518 2.6369 11.5881 2.90062C11.3244 3.16434 10.9667 3.3125 10.5938 3.3125C10.2208 3.3125 9.8631 3.16434 9.59938 2.90062C9.33566 2.6369 9.1875 2.27921 9.1875 1.90625ZM1.40625 2C1.43111 2 1.45496 1.99012 1.47254 1.97254C1.49012 1.95496 1.5 1.93111 1.5 1.90625C1.5 1.88139 1.49012 1.85754 1.47254 1.83996C1.45496 1.82238 1.43111 1.8125 1.40625 1.8125C1.38139 1.8125 1.35754 1.82238 1.33996 1.83996C1.32238 1.85754 1.3125 1.88139 1.3125 1.90625C1.3125 1.93111 1.32238 1.95496 1.33996 1.97254C1.35754 1.99012 1.38139 2 1.40625 2ZM0 1.90625C-3.89166e-09 1.72158 0.0363738 1.53872 0.107044 1.3681C0.177715 1.19749 0.281299 1.04246 0.411881 0.911881C0.542463 0.781298 0.697487 0.677715 0.868101 0.607044C1.03872 0.536374 1.22158 0.5 1.40625 0.5C1.59092 0.5 1.77378 0.536374 1.9444 0.607044C2.11501 0.677715 2.27004 0.781298 2.40062 0.911881C2.5312 1.04246 2.63478 1.19749 2.70546 1.3681C2.77613 1.53872 2.8125 1.72158 2.8125 1.90625C2.8125 2.27921 2.66434 2.6369 2.40062 2.90062C2.1369 3.16434 1.77921 3.3125 1.40625 3.3125C1.03329 3.3125 0.675604 3.16434 0.411881 2.90062C0.148158 2.6369 7.85956e-09 2.27921 0 1.90625Z" fill="#212121"/>
</svg>
