<svg width="32" height="32" viewBox="0 0 32 32" fill="none" xmlns="http://www.w3.org/2000/svg">
<path d="M16.7065 27.2266H8.27984C4.0665 27.2266 2.6665 24.4266 2.6665 21.6133V10.3866C2.6665 6.17332 4.0665 4.77332 8.27984 4.77332H16.7065C20.9198 4.77332 22.3198 6.17332 22.3198 10.3866V21.6133C22.3198 25.8266 20.9065 27.2266 16.7065 27.2266Z" stroke="#292D32" stroke-width="2" stroke-linecap="round" stroke-linejoin="round"/>
<path d="M26.0267 22.8001L22.3201 20.2001V11.7867L26.0267 9.18672C27.8401 7.92005 29.3334 8.69339 29.3334 10.9201V21.0801C29.3334 23.3067 27.8401 24.0801 26.0267 22.8001Z" stroke="#292D32" stroke-width="2" stroke-linecap="round" stroke-linejoin="round"/>
<path d="M15.3335 14.6669C16.4381 14.6669 17.3335 13.7714 17.3335 12.6669C17.3335 11.5623 16.4381 10.6669 15.3335 10.6669C14.2289 10.6669 13.3335 11.5623 13.3335 12.6669C13.3335 13.7714 14.2289 14.6669 15.3335 14.6669Z" stroke="#292D32" stroke-width="2" stroke-linecap="round" stroke-linejoin="round"/>
</svg>
