<svg width="32" height="32" viewBox="0 0 32 32" fill="none" xmlns="http://www.w3.org/2000/svg">
<path d="M19.9998 11.1601V9.88013C19.9998 5.90679 17.2398 4.38679 13.8798 6.49346L9.9865 8.93346C9.55984 9.18679 9.0665 9.33346 8.57317 9.33346H6.6665C3.99984 9.33346 2.6665 10.6668 2.6665 13.3335V18.6668C2.6665 21.3335 3.99984 22.6668 6.6665 22.6668H9.33317" stroke="#292D32" stroke-width="2" stroke-linecap="round" stroke-linejoin="round"/>
<path d="M13.8799 25.5066C17.2399 27.6133 19.9999 26.0799 19.9999 22.1199V17.2666" stroke="#292D32" stroke-width="2" stroke-linecap="round" stroke-linejoin="round"/>
<path d="M25.08 12.5602C26.28 15.4268 25.92 18.7735 24 21.3335" stroke="#292D32" stroke-width="2" stroke-linecap="round" stroke-linejoin="round"/>
<path d="M28.1999 10.4001C30.1599 15.0535 29.5733 20.4935 26.4399 24.6668" stroke="#292D32" stroke-width="2" stroke-linecap="round" stroke-linejoin="round"/>
<path d="M29.3332 2.66663L2.6665 29.3333" stroke="#292D32" stroke-width="2" stroke-linecap="round" stroke-linejoin="round"/>
</svg>
