<svg width="16" height="16" viewBox="0 0 16 16" fill="none" xmlns="http://www.w3.org/2000/svg">
<path d="M12.0267 9.03332C11.7467 9.30666 11.5867 9.69999 11.6267 10.12C11.6867 10.84 12.3467 11.3667 13.0667 11.3667H14.3334V12.16C14.3334 13.54 13.2067 14.6667 11.8267 14.6667H4.17335C2.79335 14.6667 1.66669 13.54 1.66669 12.16V7.67334C1.66669 6.29334 2.79335 5.16666 4.17335 5.16666H11.8267C13.2067 5.16666 14.3334 6.29334 14.3334 7.67334V8.63334H12.9867C12.6134 8.63334 12.2734 8.77999 12.0267 9.03332Z" stroke="white" stroke-linecap="round" stroke-linejoin="round"/>
<path d="M1.66669 8.27333V5.2267C1.66669 4.43336 2.15335 3.72667 2.89335 3.44667L8.18669 1.44667C9.01335 1.13334 9.90002 1.74669 9.90002 2.63335V5.16668" stroke="white" stroke-linecap="round" stroke-linejoin="round"/>
<path d="M15.0392 9.31343V10.6868C15.0392 11.0535 14.7459 11.3534 14.3726 11.3668H13.0659C12.3459 11.3668 11.6859 10.8401 11.6259 10.1201C11.5859 9.70011 11.7459 9.30678 12.0259 9.03344C12.2726 8.78011 12.6126 8.63346 12.9859 8.63346H14.3726C14.7459 8.64679 15.0392 8.94677 15.0392 9.31343Z" stroke="white" stroke-linecap="round" stroke-linejoin="round"/>
<path d="M4.66669 8H9.33335" stroke="white" stroke-linecap="round" stroke-linejoin="round"/>
</svg>
